<?xml version="1.0" standalone="no"?>
<!DOCTYPE svg PUBLIC "-//W3C//DTD SVG 20010904//EN"
 "http://www.w3.org/TR/2001/REC-SVG-20010904/DTD/svg10.dtd">
<svg xmlns="http://www.w3.org/2000/svg" width="3264pt" height="3264pt" viewBox="0 0 3264 3264" style="background-color: white;">
  <!-- Your existing SVG content -->
  <g transform="translate(0.000000,3264.000000) scale(0.100000,-0.100000)"
  fill="#000000" stroke="none">
    <path d="M11480 23087 l0 -1292 -318 -318 -317 -317 -1290 -2 -1290 -3 -3
    -4830 -2 -4830 1613 -1613 1612 -1612 4830 2 4830 3 3 1290 2 1290 322 322
    323 323 1282 0 1283 0 0 6440 0 6440 -6440 0 -6440 0 0 -1293z m9347 321 l323
    -323 0 -5792 0 -5793 -4835 0 -4835 0 2 4828 3 4827 2580 3 2580 2 1285 1285
    1285 1285 645 0 645 0 322 -322z"/>
  </g>
</svg>
